<svg xmlns="http://www.w3.org/2000/svg" width="240" height="294"><rect id="backgroundrect" width="100%" height="100%" x="0" y="0" fill="none" stroke="none"/><title>Uprising Primary</title><g class="currentLayer" style=""><title>Layer 1</title><path d="M190.7900000476837,0 L204.20000004768372,11.180000000000007 V204.82 l-74.39,46.79 L51.200000047683716,205.49 V36.129999999999995 l-8,-5.82 h96.28 l7.6,6.87 V59.400000000000006 L109.7200000476837,81 V48.379999999999995 H74.20000004768372 V193.52999999999997 l55.65,32.9 L182.9100000476837,193 V101.19999999999999 l-16,-14.41 l16,-9.84 V21.400000000000006 L159.5900000476837,0 H4.768372718899627e-8 l14.57,11.17 V224.8 l115.24,69.62 L240.20000004768372,225 V0 zM147.4000000476837,173 l-17.61,12.49 l-20,-10.83 V126.50999999999999 L103.7200000476837,125 h-0.12000000000000002 L139.20000004768372,103.57 h0 l8,7.52 z" fill="#fff" id="svg_15" class=""/></g></svg>